<?xml version="1.0" encoding="UTF-8"?>
<svg width="106px" height="42px" viewBox="0 0 106 42" version="1.1" xmlns="http://www.w3.org/2000/svg" xmlns:xlink="http://www.w3.org/1999/xlink">
    <!-- Generator: Sketch 56.3 (81716) - https://sketch.com -->
    <title>WeijerLogo-Primary-FullColor</title>
    <desc>Created with Sketch.</desc>
    <g id="Page-1" stroke="none" stroke-width="1" fill="none" fill-rule="evenodd">
        <g id="WeijerLogo-Primary-FullColor" fill-rule="nonzero">
            <path d="M0,10.0433578 L6.05915112,10.0433578 L6.05915112,13.2223203 C7.14583027,10.8319845 8.99708634,9.63636364 11.6108022,9.63636364 C14.3303733,9.63636364 15.9774801,10.8319845 16.5512152,13.2223203 C17.5913181,10.8319845 19.467677,9.63636364 22.1778723,9.63636364 C23.6909966,9.63636364 24.8986532,9.90779371 25.7947929,10.4533712 C26.6906303,10.9983448 27.3139661,11.7440982 27.6669176,12.6894237 C28.0183568,13.635051 28.1952862,15.4161034 28.1952862,18.0343923 L28.1952862,33.013468 L21.7865105,33.013468 L21.7865105,18.6880586 C21.7865105,16.9779586 21.6619037,15.8659708 21.4139001,15.3511896 C21.166804,14.8358046 20.6175668,14.5779611 19.7646763,14.5779611 C18.7415102,14.5779611 18.0740177,14.9155126 17.7655255,15.5891061 C17.455521,16.2639072 17.3021822,17.6219634 17.3021822,19.6647842 L17.3021822,33.013468 L10.8937089,33.013468 L10.8937089,18.48275 C10.8937089,16.848433 10.7754535,15.7898858 10.5434795,15.305901 C10.3102956,14.8216141 9.78071718,14.5779611 8.95413937,14.5779611 C7.93157824,14.5779611 7.25138302,14.9315146 6.91446107,15.6349986 C6.57663179,16.3387845 6.40756593,17.6823483 6.40756593,19.6647842 L6.40756593,33.013468 L0,33.013468 L0,10.0433578 Z" id="Weijer-Logo-/-Primary-/-Red-M" fill="#DD1321" transform="matrix(1,0,0,-1,0,42.6498316)"></path>
            <path d="M40.4649352,13.8937053 C38.5223933,13.8937053 37.5432943,15.5661784 37.5291439,18.9099132 L43.4001245,18.9099132 C43.4148772,18.6401009 43.421802,18.4305496 43.421802,18.2791398 C43.421802,15.3557187 42.4357782,13.8937053 40.4649352,13.8937053 Z M40.4923332,29.0583088 C42.3307028,29.0583088 43.4019309,27.8770092 43.7066197,25.5150157 L49.4309764,25.5150157 C48.4199634,30.8715929 45.3980644,33.5488215 40.3655802,33.5488215 C37.2608852,33.5488215 34.9031595,32.4956148 33.2911989,30.3876871 C31.6789373,28.2779425 30.8720539,25.4568743 30.8720539,21.9223632 C30.8720539,17.9336225 31.7271095,14.8875595 33.437823,12.7875051 C35.1497406,10.6862394 37.4424339,9.63636364 40.3198166,9.63636364 C42.9117792,9.63636364 45.0786229,10.5654144 46.8188416,12.4204877 C48.5599637,14.2782863 49.4309764,17.6856132 49.4309764,22.6424683 L37.4839823,22.6424683 L37.4839823,23.907649 C37.4839823,25.9574353 37.7591658,27.3264831 38.3140487,28.0193344 C38.8677274,28.7109746 39.5927183,29.0583088 40.4923332,29.0583088 Z M52.6430976,9.99326599 L59.0673401,9.99326599 L59.0673401,33.013468 L52.6430976,33.013468 L52.6430976,9.99326599 Z M62.9552623,9.81481481 L69.4175084,9.81481481 L69.4175084,32.1581799 C69.4175084,34.536678 69.2878852,36.3220699 69.0271142,37.520126 C68.7660379,38.7121081 68.1478119,39.658709 67.1684711,40.3562843 C66.1882154,41.0511264 64.9416986,41.4006734 63.4252606,41.4006734 C62.4617795,41.4006734 61.3061514,41.2925598 59.959596,41.0778513 L59.959596,35.7745173 C60.2816712,35.8221966 60.5650121,35.8443659 60.8132786,35.8443659 C61.7651696,35.8443659 62.359911,35.6059694 62.5975027,35.1346431 C62.8375341,34.660887 62.9552623,33.6092094 62.9552623,31.9771808 L62.9552623,9.81481481 Z M81.8657846,13.8937053 C79.9209774,13.8937053 78.9433046,15.5661784 78.9294539,18.9099132 L84.8003085,18.9099132 C84.8141592,18.6401009 84.8234933,18.4305496 84.8234933,18.2791398 C84.8234933,15.3557187 83.8376908,13.8937053 81.8657846,13.8937053 Z M81.8916792,29.0583088 C83.7308001,29.0583088 84.8018141,27.8770092 85.1077321,25.5150157 L90.8316498,25.5150157 C89.8205549,30.8715929 86.7999161,33.5488215 81.7664215,33.5488215 C78.6632811,33.5488215 76.30416,32.4956148 74.6917675,30.3876871 C73.0790741,28.2779425 72.2727273,25.4568743 72.2727273,21.9223632 C72.2727273,17.9336225 73.1284546,14.8875595 74.8396077,12.7875051 C76.5501588,10.6862394 78.8421347,9.63636364 81.7230631,9.63636364 C84.3134293,9.63636364 86.4798464,10.5654144 88.2217119,12.4204877 C89.9602654,14.2782863 90.8316498,17.6856132 90.8316498,22.6424683 L78.8836867,22.6424683 L78.8836867,23.907649 C78.8836867,25.9574353 79.1628067,27.3264831 79.7141214,28.0193344 C80.2681461,28.7109746 80.9947012,29.0583088 81.8916792,29.0583088 Z M93.8653199,9.92827022 L99.524354,9.92827022 L99.524354,15.5266863 C100.532397,11.5999057 102.331002,9.63636364 104.917444,9.63636364 C105.232155,9.63636364 105.592906,9.67398985 106,9.75015258 L106,16.0977551 C105.533538,16.0382814 105.180359,16.0058136 104.938344,16.0058136 C101.833645,16.0058136 100.281901,18.3726236 100.281901,23.1080644 L100.281901,33.013468 L93.8653199,33.013468 L93.8653199,9.92827022 Z" id="Weijer-Logo-/-Primary-/-Red-eijer" fill="#DD1321"></path>
            <path d="M59.2457912,3.56872554 C59.2457912,5.54055517 57.608362,7.13804714 55.5875421,7.13804714 C53.5667222,7.13804714 51.9292929,5.54055517 51.9292929,3.56872554 C51.9292929,1.59779001 53.5667222,0 55.5875421,0 C57.608362,0 59.2457912,1.59779001 59.2457912,3.56872554 Z M69.5959596,3.56872554 C69.5959596,5.54055517 67.9575454,7.13804714 65.9372522,7.13804714 C63.9169589,7.13804714 62.2794613,5.54055517 62.2794613,3.56872554 C62.2794613,1.59779001 63.9169589,0 65.9372522,0 C67.9575454,0 69.5959596,1.59779001 69.5959596,3.56872554 Z" id="Meijer-Logo-/--Primary-/-Blue" fill="#0A4D8C"></path>
        </g>
    </g>
</svg>
